<svg xmlns="http://www.w3.org/2000/svg" version="1.1" xmlns:xlink="http://www.w3.org/1999/xlink" xmlns:svgjs="http://svgjs.dev/svgjs" width="1500" height="666" viewBox="0 0 1500 666"><g transform="matrix(1,0,0,1,-0.9090909090909918,-1.3335356109613485)"><svg viewBox="0 0 396 176" data-background-color="#ffffff" preserveAspectRatio="xMidYMid meet" height="666" width="1500" xmlns="http://www.w3.org/2000/svg" xmlns:xlink="http://www.w3.org/1999/xlink"><g id="tight-bounds" transform="matrix(1,0,0,1,0.2400000000000091,0.35240580710089375)"><svg viewBox="0 0 395.52 175.2951883857982" height="175.2951883857982" width="395.52"><g><svg viewBox="0 0 395.52 175.2951883857982" height="175.2951883857982" width="395.52"><g transform="matrix(1,0,0,1,0,110.27075130087123)"><svg viewBox="0 0 395.52 65.02443708492699" height="65.02443708492699" width="395.52"><g id="textblocktransform"><svg viewBox="0 0 395.52 65.02443708492699" height="65.02443708492699" width="395.52" id="textblock"><g><svg viewBox="0 0 395.52 52.18336368321594" height="52.18336368321594" width="395.52"><g transform="matrix(1,0,0,1,0,0)"><svg width="395.52" viewBox="2 -37.65 291.02 38.4" height="52.18336368321594" data-palette-color="#f1f9f3"><path d="M29.05-34.55L31.25 0 25.2 0 24.6-14.6Q24.3-22.6 24.3-26L24.3-26 24.35-28.6 19.6-3.8 13.6-3.8 8.65-28.65Q8.7-27.15 8.7-24.05L8.7-24.05Q8.7-18.8 8.5-14.4L8.5-14.4 7.95 0 2 0 4.2-34.55 12.2-34.55 16.7-10.2 20.9-34.55 29.05-34.55ZM54.9-13.85Q54.9-13.4 54.75-11.3L54.75-11.3 41.1-11.3Q41.3-7.2 42.52-5.58 43.75-3.95 46-3.95L46-3.95Q47.55-3.95 48.8-4.48 50.05-5 51.5-6.15L51.5-6.15 54.05-2.65Q50.55 0.75 45.65 0.75L45.65 0.75Q40.45 0.75 37.67-2.85 34.9-6.45 34.9-13L34.9-13Q34.9-19.55 37.55-23.35 40.2-27.15 45.05-27.15L45.05-27.15Q49.7-27.15 52.3-23.78 54.9-20.4 54.9-13.85L54.9-13.85ZM48.9-15.3L48.9-15.65Q48.9-19.4 48-21.13 47.1-22.85 45.1-22.85L45.1-22.85Q43.25-22.85 42.27-21.18 41.3-19.5 41.1-15.3L41.1-15.3 48.9-15.3ZM82.85-27.15Q85.5-27.15 87.1-25.1 88.7-23.05 88.7-19.6L88.7-19.6 88.7 0 82.65 0 82.65-18.95Q82.65-20.85 82.15-21.68 81.65-22.5 80.7-22.5L80.7-22.5Q78.75-22.5 76.95-18.8L76.95-18.8 76.95 0 70.95 0 70.95-18.95Q70.95-22.5 69.05-22.5L69.05-22.5Q67-22.5 65.25-18.8L65.25-18.8 65.25 0 59.2 0 59.2-26.45 64.55-26.45 64.95-23.05Q67.55-27.15 71.2-27.15L71.2-27.15Q73.05-27.15 74.4-26 75.75-24.85 76.45-22.75L76.45-22.75Q79.1-27.15 82.85-27.15L82.85-27.15ZM106.34-27.15Q110.19-27.15 112.24-23.65 114.29-20.15 114.29-13.25L114.29-13.25Q114.29-6.75 111.99-3 109.69 0.75 105.69 0.75L105.69 0.75Q103.94 0.75 102.49-0.13 101.04-1 99.99-2.55L99.99-2.55 99.64 0 94.19 0 94.19-37 100.34-37.65 100.34-23.6Q101.39-25.3 102.92-26.23 104.44-27.15 106.34-27.15L106.34-27.15ZM104.04-3.9Q105.89-3.9 106.92-6 107.94-8.1 107.94-13.25L107.94-13.25Q107.94-18.6 107.02-20.58 106.09-22.55 104.39-22.55L104.39-22.55Q103.24-22.55 102.19-21.6 101.14-20.65 100.34-19.1L100.34-19.1 100.34-6.7Q100.99-5.45 101.97-4.67 102.94-3.9 104.04-3.9L104.04-3.9ZM121.39-7.05Q123.09-7.05 124.14-5.9 125.19-4.75 125.19-3.15L125.19-3.15Q125.19-1.55 124.14-0.4 123.09 0.75 121.39 0.75L121.39 0.75Q119.74 0.75 118.67-0.4 117.59-1.55 117.59-3.15L117.59-3.15Q117.59-4.75 118.67-5.9 119.74-7.05 121.39-7.05L121.39-7.05ZM127.19-34.55L148.74-34.55 148.04-29.55 140.94-29.55 140.94 0 134.59 0 134.59-29.55 127.19-29.55 127.19-34.55ZM170.49-13.85Q170.49-13.4 170.34-11.3L170.34-11.3 156.69-11.3Q156.89-7.2 158.11-5.58 159.34-3.95 161.59-3.95L161.59-3.95Q163.14-3.95 164.39-4.48 165.64-5 167.09-6.15L167.09-6.15 169.64-2.65Q166.14 0.75 161.24 0.75L161.24 0.75Q156.04 0.75 153.26-2.85 150.49-6.45 150.49-13L150.49-13Q150.49-19.55 153.14-23.35 155.79-27.15 160.64-27.15L160.64-27.15Q165.29-27.15 167.89-23.78 170.49-20.4 170.49-13.85L170.49-13.85ZM164.49-15.3L164.49-15.65Q164.49-19.4 163.59-21.13 162.69-22.85 160.69-22.85L160.69-22.85Q158.84-22.85 157.86-21.18 156.89-19.5 156.69-15.3L156.69-15.3 164.49-15.3ZM184.28-27.15Q186.43-27.15 188.18-26.43 189.93-25.7 191.53-24.15L191.53-24.15 188.88-20.65Q187.78-21.55 186.81-21.98 185.83-22.4 184.68-22.4L184.68-22.4Q182.43-22.4 181.28-20.28 180.13-18.15 180.13-13.1L180.13-13.1Q180.13-8.2 181.31-6.2 182.48-4.2 184.68-4.2L184.68-4.2Q185.78-4.2 186.68-4.6 187.58-5 188.78-5.85L188.78-5.85 191.53-2.3Q188.33 0.75 184.38 0.75L184.38 0.75Q179.28 0.75 176.46-2.73 173.63-6.2 173.63-13L173.63-13Q173.63-17.4 174.93-20.6 176.23-23.8 178.66-25.48 181.08-27.15 184.28-27.15L184.28-27.15ZM206.93-27.15Q209.78-27.15 211.43-25.1 213.08-23.05 213.08-19.6L213.08-19.6 213.08 0 206.93 0 206.93-18.9Q206.93-20.8 206.41-21.63 205.88-22.45 204.88-22.45L204.88-22.45Q202.78-22.45 200.73-18.5L200.73-18.5 200.73 0 194.58 0 194.58-37 200.73-37.65 200.73-23.3Q201.98-25.25 203.46-26.2 204.93-27.15 206.93-27.15L206.93-27.15ZM221.13-7.05Q222.83-7.05 223.88-5.9 224.93-4.75 224.93-3.15L224.93-3.15Q224.93-1.55 223.88-0.4 222.83 0.75 221.13 0.75L221.13 0.75Q219.48 0.75 218.4-0.4 217.33-1.55 217.33-3.15L217.33-3.15Q217.33-4.75 218.4-5.9 219.48-7.05 221.13-7.05L221.13-7.05ZM229.53-34.55L235.88-34.55 235.88-5.25 247.03-5.25 246.33 0 229.53 0 229.53-34.55ZM267.12-6.4Q267.12-5.1 267.47-4.48 267.82-3.85 268.62-3.45L268.62-3.45 267.37 0.65Q265.32 0.4 264.1-0.45 262.87-1.3 262.27-3.05L262.27-3.05Q259.97 0.75 255.82 0.75L255.82 0.75Q252.52 0.75 250.57-1.48 248.62-3.7 248.62-7.4L248.62-7.4Q248.62-11.7 251.3-13.95 253.97-16.2 259.07-16.2L259.07-16.2 261.12-16.2 261.12-18.05Q261.12-20.55 260.25-21.58 259.37-22.6 257.42-22.6L257.42-22.6Q255.07-22.6 251.57-21.3L251.57-21.3 250.17-25.3Q252.17-26.2 254.32-26.68 256.47-27.15 258.42-27.15L258.42-27.15Q267.12-27.15 267.12-18.35L267.12-18.35 267.12-6.4ZM257.47-3.7Q259.87-3.7 261.12-7L261.12-7 261.12-12.55 259.67-12.55Q257.12-12.55 255.95-11.4 254.77-10.25 254.77-7.85L254.77-7.85Q254.77-5.8 255.47-4.75 256.17-3.7 257.47-3.7L257.47-3.7ZM285.07-27.15Q288.92-27.15 290.97-23.65 293.02-20.15 293.02-13.25L293.02-13.25Q293.02-6.75 290.72-3 288.42 0.75 284.42 0.75L284.42 0.75Q282.67 0.75 281.22-0.13 279.77-1 278.72-2.55L278.72-2.55 278.37 0 272.92 0 272.92-37 279.07-37.65 279.07-23.6Q280.12-25.3 281.65-26.23 283.17-27.15 285.07-27.15L285.07-27.15ZM282.77-3.9Q284.62-3.9 285.65-6 286.67-8.1 286.67-13.25L286.67-13.25Q286.67-18.6 285.75-20.58 284.82-22.55 283.12-22.55L283.12-22.55Q281.97-22.55 280.92-21.6 279.87-20.65 279.07-19.1L279.07-19.1 279.07-6.7Q279.72-5.45 280.7-4.67 281.67-3.9 282.77-3.9L282.77-3.9Z" opacity="1" transform="matrix(1,0,0,1,0,0)" fill="#f1f9f3" class="wordmark-text-0" data-fill-palette-color="primary" id="text-0"></path></svg></g></svg></g><g transform="matrix(1,0,0,1,0,64.50260344809482)"><svg viewBox="0 0 395.52 0.5218336368321593" height="0.5218336368321593" width="395.52"><g transform="matrix(1,0,0,1,0,0)"><svg width="395.52" viewBox="2.85 -39.65 38276.11 50.5" height="0.5218336368321593" data-palette-color="#ffffff"><path d="M26.5-27.15Q29.15-27.15 30.75-25.1 32.35-23.05 32.35-19.6L32.35-19.6 32.35 0 26.3 0 26.3-18.95Q26.3-20.85 25.8-21.68 25.3-22.5 24.35-22.5L24.35-22.5Q22.4-22.5 20.6-18.8L20.6-18.8 20.6 0 14.6 0 14.6-18.95Q14.6-22.5 12.7-22.5L12.7-22.5Q10.65-22.5 8.9-18.8L8.9-18.8 8.9 0 2.85 0 2.85-26.45 8.2-26.45 8.6-23.05Q11.2-27.15 14.85-27.15L14.85-27.15Q16.7-27.15 18.05-26 19.4-24.85 20.1-22.75L20.1-22.75Q22.75-27.15 26.5-27.15L26.5-27.15ZM1042.97-13.85Q1042.97-13.4 1042.82-11.3L1042.82-11.3 1029.17-11.3Q1029.37-7.2 1030.6-5.58 1031.82-3.95 1034.07-3.95L1034.07-3.95Q1035.62-3.95 1036.87-4.48 1038.12-5 1039.57-6.15L1039.57-6.15 1042.12-2.65Q1038.62 0.75 1033.72 0.75L1033.72 0.75Q1028.52 0.75 1025.75-2.85 1022.97-6.45 1022.97-13L1022.97-13Q1022.97-19.55 1025.62-23.35 1028.27-27.15 1033.12-27.15L1033.12-27.15Q1037.77-27.15 1040.37-23.78 1042.97-20.4 1042.97-13.85L1042.97-13.85ZM1036.97-15.3L1036.97-15.65Q1036.97-19.4 1036.07-21.13 1035.17-22.85 1033.17-22.85L1033.17-22.85Q1031.32-22.85 1030.35-21.18 1029.37-19.5 1029.17-15.3L1029.17-15.3 1036.97-15.3ZM2057.19-27.15Q2059.84-27.15 2061.44-25.1 2063.04-23.05 2063.04-19.6L2063.04-19.6 2063.04 0 2056.99 0 2056.99-18.95Q2056.99-20.85 2056.49-21.68 2055.99-22.5 2055.04-22.5L2055.04-22.5Q2053.09-22.5 2051.29-18.8L2051.29-18.8 2051.29 0 2045.29 0 2045.29-18.95Q2045.29-22.5 2043.39-22.5L2043.39-22.5Q2041.34-22.5 2039.59-18.8L2039.59-18.8 2039.59 0 2033.54 0 2033.54-26.45 2038.89-26.45 2039.29-23.05Q2041.89-27.15 2045.54-27.15L2045.54-27.15Q2047.39-27.15 2048.74-26 2050.09-24.85 2050.79-22.75L2050.79-22.75Q2053.44-27.15 2057.19-27.15L2057.19-27.15ZM3066.96-27.15Q3070.81-27.15 3072.86-23.65 3074.91-20.15 3074.91-13.25L3074.91-13.25Q3074.91-6.75 3072.61-3 3070.31 0.75 3066.31 0.75L3066.31 0.75Q3064.56 0.75 3063.11-0.13 3061.66-1 3060.61-2.55L3060.61-2.55 3060.26 0 3054.81 0 3054.81-37 3060.96-37.65 3060.96-23.6Q3062.01-25.3 3063.54-26.23 3065.06-27.15 3066.96-27.15L3066.96-27.15ZM3064.66-3.9Q3066.51-3.9 3067.54-6 3068.56-8.1 3068.56-13.25L3068.56-13.25Q3068.56-18.6 3067.64-20.58 3066.71-22.55 3065.01-22.55L3065.01-22.55Q3063.86-22.55 3062.81-21.6 3061.76-20.65 3060.96-19.1L3060.96-19.1 3060.96-6.7Q3061.61-5.45 3062.59-4.67 3063.56-3.9 3064.66-3.9L3064.66-3.9ZM4077.43-27.1Q4078.58-27.1 4079.48-26.75L4079.48-26.75 4078.48-20.85Q4077.48-21.1 4076.63-21.1L4076.63-21.1Q4074.73-21.1 4073.63-19.45 4072.53-17.8 4071.93-14.55L4071.93-14.55 4071.93 0 4065.78 0 4065.78-26.45 4071.13-26.45 4071.58-21.85Q4073.43-27.1 4077.43-27.1L4077.43-27.1ZM5085.51-6.4Q5085.51-5.1 5085.86-4.48 5086.21-3.85 5087.01-3.45L5087.01-3.45 5085.76 0.65Q5083.71 0.4 5082.48-0.45 5081.26-1.3 5080.66-3.05L5080.66-3.05Q5078.36 0.75 5074.21 0.75L5074.21 0.75Q5070.91 0.75 5068.96-1.48 5067.01-3.7 5067.01-7.4L5067.01-7.4Q5067.01-11.7 5069.68-13.95 5072.36-16.2 5077.46-16.2L5077.46-16.2 5079.51-16.2 5079.51-18.05Q5079.51-20.55 5078.63-21.58 5077.76-22.6 5075.81-22.6L5075.81-22.6Q5073.46-22.6 5069.96-21.3L5069.96-21.3 5068.56-25.3Q5070.56-26.2 5072.71-26.68 5074.86-27.15 5076.81-27.15L5076.81-27.15Q5085.51-27.15 5085.51-18.35L5085.51-18.35 5085.51-6.4ZM5075.86-3.7Q5078.26-3.7 5079.51-7L5079.51-7 5079.51-12.55 5078.06-12.55Q5075.51-12.55 5074.33-11.4 5073.16-10.25 5073.16-7.85L5073.16-7.85Q5073.16-5.8 5073.86-4.75 5074.56-3.7 5075.86-3.7L5075.86-3.7ZM6089.93-27.15Q6092.78-27.15 6094.43-25.1 6096.08-23.05 6096.08-19.6L6096.08-19.6 6096.08 0 6089.93 0 6089.93-18.9Q6089.93-20.8 6089.4-21.63 6088.88-22.45 6087.88-22.45L6087.88-22.45Q6085.78-22.45 6083.73-18.5L6083.73-18.5 6083.73 0 6077.58 0 6077.58-26.45 6082.93-26.45 6083.38-23Q6084.73-25.1 6086.25-26.13 6087.78-27.15 6089.93-27.15L6089.93-27.15ZM7106.75-13.85Q7106.75-13.4 7106.6-11.3L7106.6-11.3 7092.95-11.3Q7093.15-7.2 7094.37-5.58 7095.6-3.95 7097.85-3.95L7097.85-3.95Q7099.4-3.95 7100.65-4.48 7101.9-5 7103.35-6.15L7103.35-6.15 7105.9-2.65Q7102.4 0.75 7097.5 0.75L7097.5 0.75Q7092.3 0.75 7089.52-2.85 7086.75-6.45 7086.75-13L7086.75-13Q7086.75-19.55 7089.4-23.35 7092.05-27.15 7096.9-27.15L7096.9-27.15Q7101.55-27.15 7104.15-23.78 7106.75-20.4 7106.75-13.85L7106.75-13.85ZM7100.75-15.3L7100.75-15.65Q7100.75-19.4 7099.85-21.13 7098.95-22.85 7096.95-22.85L7096.95-22.85Q7095.1-22.85 7094.12-21.18 7093.15-19.5 7092.95-15.3L7092.95-15.3 7100.75-15.3ZM9104.59-5L9106.74-1.2Q9104.29 0.75 9100.99 0.75L9100.99 0.75Q9097.54 0.75 9095.74-1.23 9093.94-3.2 9093.94-6.6L9093.94-6.6 9093.94-22 9090.84-22 9090.84-26.45 9093.94-26.45 9093.94-32.3 9100.09-33.05 9100.09-26.45 9105.09-26.45 9104.49-22 9100.09-22 9100.09-6.6Q9100.09-4.2 9102.14-4.2L9102.14-4.2Q9102.79-4.2 9103.29-4.38 9103.79-4.55 9104.59-5L9104.59-5ZM10114.41-13.85Q10114.41-13.4 10114.26-11.3L10114.26-11.3 10100.61-11.3Q10100.81-7.2 10102.04-5.58 10103.26-3.95 10105.51-3.95L10105.51-3.95Q10107.06-3.95 10108.31-4.48 10109.56-5 10111.01-6.15L10111.01-6.15 10113.56-2.65Q10110.06 0.75 10105.16 0.75L10105.16 0.75Q10099.96 0.75 10097.19-2.85 10094.41-6.45 10094.41-13L10094.41-13Q10094.41-19.55 10097.06-23.35 10099.71-27.15 10104.56-27.15L10104.56-27.15Q10109.21-27.15 10111.81-23.78 10114.41-20.4 10114.41-13.85L10114.41-13.85ZM10108.41-15.3L10108.41-15.65Q10108.41-19.4 10107.51-21.13 10106.61-22.85 10104.61-22.85L10104.61-22.85Q10102.76-22.85 10101.79-21.18 10100.81-19.5 10100.61-15.3L10100.61-15.3 10108.41-15.3ZM11114.48-27.15Q11116.63-27.15 11118.38-26.43 11120.13-25.7 11121.73-24.15L11121.73-24.15 11119.08-20.65Q11117.98-21.55 11117.01-21.98 11116.03-22.4 11114.88-22.4L11114.88-22.4Q11112.63-22.4 11111.48-20.28 11110.33-18.15 11110.33-13.1L11110.33-13.1Q11110.33-8.2 11111.51-6.2 11112.68-4.2 11114.88-4.2L11114.88-4.2Q11115.98-4.2 11116.88-4.6 11117.78-5 11118.98-5.85L11118.98-5.85 11121.73-2.3Q11118.53 0.75 11114.58 0.75L11114.58 0.75Q11109.48 0.75 11106.66-2.73 11103.83-6.2 11103.83-13L11103.83-13Q11103.83-17.4 11105.13-20.6 11106.43-23.8 11108.86-25.48 11111.28-27.15 11114.48-27.15L11114.48-27.15ZM12123.4-27.15Q12126.25-27.15 12127.9-25.1 12129.55-23.05 12129.55-19.6L12129.55-19.6 12129.55 0 12123.4 0 12123.4-18.9Q12123.4-20.8 12122.88-21.63 12122.35-22.45 12121.35-22.45L12121.35-22.45Q12119.25-22.45 12117.2-18.5L12117.2-18.5 12117.2 0 12111.05 0 12111.05-37 12117.2-37.65 12117.2-23.3Q12118.45-25.25 12119.93-26.2 12121.4-27.15 12123.4-27.15L12123.4-27.15ZM13133.73-27.15Q13136.58-27.15 13138.23-25.1 13139.88-23.05 13139.88-19.6L13139.88-19.6 13139.88 0 13133.73 0 13133.73-18.9Q13133.73-20.8 13133.2-21.63 13132.68-22.45 13131.68-22.45L13131.68-22.45Q13129.58-22.45 13127.53-18.5L13127.53-18.5 13127.53 0 13121.38 0 13121.38-26.45 13126.73-26.45 13127.18-23Q13128.53-25.1 13130.05-26.13 13131.58-27.15 13133.73-27.15L13133.73-27.15ZM14141.1-27.15Q14146.1-27.15 14148.87-23.65 14151.65-20.15 14151.65-13.25L14151.65-13.25Q14151.65-6.65 14148.85-2.95 14146.05 0.75 14141.1 0.75L14141.1 0.75Q14136.15 0.75 14133.35-2.88 14130.55-6.5 14130.55-13.25L14130.55-13.25Q14130.55-19.95 14133.35-23.55 14136.15-27.15 14141.1-27.15L14141.1-27.15ZM14141.1-22.5Q14138.95-22.5 14137.95-20.38 14136.95-18.25 14136.95-13.25L14136.95-13.25Q14136.95-8.2 14137.95-6.08 14138.95-3.95 14141.1-3.95L14141.1-3.95Q14143.25-3.95 14144.25-6.08 14145.25-8.2 14145.25-13.25L14145.25-13.25Q14145.25-18.3 14144.25-20.4 14143.25-22.5 14141.1-22.5L14141.1-22.5ZM15148.07 0.75Q15145.37 0.75 15143.79-0.93 15142.22-2.6 15142.22-5.4L15142.22-5.4 15142.22-37.05 15148.37-37.7 15148.37-5.65Q15148.37-5 15148.67-4.6 15148.97-4.2 15149.57-4.2L15149.57-4.2Q15149.92-4.2 15150.24-4.3 15150.57-4.4 15150.67-4.4L15150.67-4.4 15151.87-0.2Q15150.17 0.75 15148.07 0.75L15148.07 0.75ZM16150.59-27.15Q16155.59-27.15 16158.36-23.65 16161.14-20.15 16161.14-13.25L16161.14-13.25Q16161.14-6.65 16158.34-2.95 16155.54 0.75 16150.59 0.75L16150.59 0.75Q16145.64 0.75 16142.84-2.88 16140.04-6.5 16140.04-13.25L16140.04-13.25Q16140.04-19.95 16142.84-23.55 16145.64-27.15 16150.59-27.15L16150.59-27.15ZM16150.59-22.5Q16148.44-22.5 16147.44-20.38 16146.44-18.25 16146.44-13.25L16146.44-13.25Q16146.44-8.2 16147.44-6.08 16148.44-3.95 16150.59-3.95L16150.59-3.95Q16152.74-3.95 16153.74-6.08 16154.74-8.2 16154.74-13.25L16154.74-13.25Q16154.74-18.3 16153.74-20.4 16152.74-22.5 16150.59-22.5L16150.59-22.5ZM17169.91-29.85L17171.46-25.1Q17170.41-24.6 17168.94-24.4 17167.46-24.2 17165.26-24.2L17165.26-24.2Q17167.36-23.2 17168.39-21.53 17169.41-19.85 17169.41-17.4L17169.41-17.4Q17169.41-13.4 17166.96-10.95 17164.51-8.5 17160.31-8.5L17160.31-8.5Q17159.06-8.5 17157.76-8.9L17157.76-8.9Q17156.86-8.15 17156.86-6.85L17156.86-6.85Q17156.86-5.85 17157.41-5.35 17157.96-4.85 17159.46-4.85L17159.46-4.85 17162.26-4.85Q17166.26-4.85 17168.61-2.78 17170.96-0.7 17170.96 2.5L17170.96 2.5Q17170.96 6.3 17168.04 8.58 17165.11 10.85 17159.71 10.85L17159.71 10.85Q17154.01 10.85 17151.74 8.75 17149.46 6.65 17149.46 2.6L17149.46 2.6 17154.91 2.6Q17154.91 4.75 17155.91 5.65 17156.91 6.55 17159.76 6.55L17159.76 6.55Q17162.51 6.55 17163.66 5.6 17164.81 4.65 17164.81 2.9L17164.81 2.9Q17164.81 1.2 17163.86 0.4 17162.91-0.4 17160.91-0.4L17160.91-0.4 17159.01-0.4Q17155.21-0.4 17153.46-1.75 17151.71-3.1 17151.71-5.45L17151.71-5.45Q17151.71-6.8 17152.44-8.03 17153.16-9.25 17154.41-10.2L17154.41-10.2Q17152.36-11.5 17151.41-13.3 17150.46-15.1 17150.46-17.7L17150.46-17.7Q17150.46-22.05 17153.06-24.58 17155.66-27.1 17160.06-27.1L17160.06-27.1Q17163.31-27.1 17165.44-27.8 17167.56-28.5 17169.91-29.85L17169.91-29.85ZM17160.06-23Q17158.31-23 17157.41-21.75 17156.51-20.5 17156.51-17.8L17156.51-17.8Q17156.51-15.25 17157.41-13.88 17158.31-12.5 17160.01-12.5L17160.01-12.5Q17161.76-12.5 17162.61-13.73 17163.46-14.95 17163.46-17.85L17163.46-17.85Q17163.46-20.55 17162.64-21.78 17161.81-23 17160.06-23L17160.06-23ZM18179.13-26.45L18172.13 0.1Q18170.83 4.9 18167.93 7.65 18165.03 10.4 18160.18 10.85L18160.18 10.85 18159.48 6.5Q18162.63 5.85 18164.21 4.42 18165.78 3 18166.68 0L18166.68 0 18164.38 0 18157.68-26.45 18163.93-26.45 18168.33-4.1 18173.03-26.45 18179.13-26.45ZM20181.32-6.4Q20181.32-5.1 20181.67-4.48 20182.02-3.85 20182.82-3.45L20182.82-3.45 20181.57 0.65Q20179.52 0.4 20178.3-0.45 20177.07-1.3 20176.47-3.05L20176.47-3.05Q20174.17 0.75 20170.02 0.75L20170.02 0.75Q20166.72 0.75 20164.77-1.48 20162.82-3.7 20162.82-7.4L20162.82-7.4Q20162.82-11.7 20165.5-13.95 20168.17-16.2 20173.27-16.2L20173.27-16.2 20175.32-16.2 20175.32-18.05Q20175.32-20.55 20174.45-21.58 20173.57-22.6 20171.62-22.6L20171.62-22.6Q20169.27-22.6 20165.77-21.3L20165.77-21.3 20164.37-25.3Q20166.37-26.2 20168.52-26.68 20170.67-27.15 20172.62-27.15L20172.62-27.15Q20181.32-27.15 20181.32-18.35L20181.32-18.35 20181.32-6.4ZM20171.67-3.7Q20174.07-3.7 20175.32-7L20175.32-7 20175.32-12.55 20173.87-12.55Q20171.32-12.55 20170.15-11.4 20168.97-10.25 20168.97-7.85L20168.97-7.85Q20168.97-5.8 20169.67-4.75 20170.37-3.7 20171.67-3.7L20171.67-3.7ZM21185.75-27.15Q21188.6-27.15 21190.25-25.1 21191.9-23.05 21191.9-19.6L21191.9-19.6 21191.9 0 21185.75 0 21185.75-18.9Q21185.75-20.8 21185.22-21.63 21184.7-22.45 21183.7-22.45L21183.7-22.45Q21181.6-22.45 21179.55-18.5L21179.55-18.5 21179.55 0 21173.4 0 21173.4-26.45 21178.75-26.45 21179.2-23Q21180.55-25.1 21182.07-26.13 21183.6-27.15 21185.75-27.15L21185.75-27.15ZM22196.67-37.7L22202.82-37.05 22202.82 0 22197.37 0 22197.07-3.05Q22194.72 0.75 22191.02 0.75L22191.02 0.75Q22186.92 0.75 22184.74-2.93 22182.57-6.6 22182.57-13.2L22182.57-13.2Q22182.57-17.4 22183.69-20.58 22184.82-23.75 22186.82-25.45 22188.82-27.15 22191.42-27.15L22191.42-27.15Q22194.62-27.15 22196.67-24.5L22196.67-24.5 22196.67-37.7ZM22192.77-3.9Q22193.92-3.9 22194.84-4.7 22195.77-5.5 22196.67-7L22196.67-7 22196.67-19.85Q22195.07-22.55 22193.02-22.55L22193.02-22.55Q22188.97-22.55 22188.97-13.25L22188.97-13.25Q22188.97-8.2 22189.97-6.05 22190.97-3.9 22192.77-3.9L22192.77-3.9ZM24207.81-6.4Q24207.81-5.1 24208.16-4.48 24208.51-3.85 24209.31-3.45L24209.31-3.45 24208.06 0.65Q24206.01 0.4 24204.78-0.45 24203.56-1.3 24202.96-3.05L24202.96-3.05Q24200.66 0.75 24196.51 0.75L24196.51 0.75Q24193.21 0.75 24191.26-1.48 24189.31-3.7 24189.31-7.4L24189.31-7.4Q24189.31-11.7 24191.98-13.95 24194.66-16.2 24199.76-16.2L24199.76-16.2 24201.81-16.2 24201.81-18.05Q24201.81-20.55 24200.93-21.58 24200.06-22.6 24198.11-22.6L24198.11-22.6Q24195.76-22.6 24192.26-21.3L24192.26-21.3 24190.86-25.3Q24192.86-26.2 24195.01-26.68 24197.16-27.15 24199.11-27.15L24199.11-27.15Q24207.81-27.15 24207.81-18.35L24207.81-18.35 24207.81-6.4ZM24198.16-3.7Q24200.56-3.7 24201.81-7L24201.81-7 24201.81-12.55 24200.36-12.55Q24197.81-12.55 24196.63-11.4 24195.46-10.25 24195.46-7.85L24195.46-7.85Q24195.46-5.8 24196.16-4.75 24196.86-3.7 24198.16-3.7L24198.16-3.7ZM25212.08-27.15Q25215.98-27.15 25217.98-23.58 25219.98-20 25219.98-13.3L25219.98-13.3Q25219.98-6.8 25217.71-3.03 25215.43 0.75 25211.38 0.75L25211.38 0.75Q25208.18 0.75 25206.03-2.1L25206.03-2.1 25206.03 10.15 25199.88 10.85 25199.88-26.45 25205.33-26.45 25205.58-23.25Q25206.88-25.25 25208.48-26.2 25210.08-27.15 25212.08-27.15L25212.08-27.15ZM25209.73-3.95Q25211.63-3.95 25212.63-6.13 25213.63-8.3 25213.63-13.25L25213.63-13.25Q25213.63-18.45 25212.78-20.5 25211.93-22.55 25210.13-22.55L25210.13-22.55Q25207.83-22.55 25206.03-19.25L25206.03-19.25 25206.03-6.45Q25207.63-3.95 25209.73-3.95L25209.73-3.95ZM26223.05-27.15Q26226.95-27.15 26228.95-23.58 26230.95-20 26230.95-13.3L26230.95-13.3Q26230.95-6.8 26228.68-3.03 26226.4 0.75 26222.35 0.75L26222.35 0.75Q26219.15 0.75 26217-2.1L26217-2.1 26217 10.15 26210.85 10.85 26210.85-26.45 26216.3-26.45 26216.55-23.25Q26217.85-25.25 26219.45-26.2 26221.05-27.15 26223.05-27.15L26223.05-27.15ZM26220.7-3.95Q26222.6-3.95 26223.6-6.13 26224.6-8.3 26224.6-13.25L26224.6-13.25Q26224.6-18.45 26223.75-20.5 26222.9-22.55 26221.1-22.55L26221.1-22.55Q26218.8-22.55 26217-19.25L26217-19.25 26217-6.45Q26218.6-3.95 26220.7-3.95L26220.7-3.95ZM27227.42 0.75Q27224.72 0.75 27223.15-0.93 27221.57-2.6 27221.57-5.4L27221.57-5.4 27221.57-37.05 27227.72-37.7 27227.72-5.65Q27227.72-5 27228.02-4.6 27228.32-4.2 27228.92-4.2L27228.92-4.2Q27229.27-4.2 27229.6-4.3 27229.92-4.4 27230.02-4.4L27230.02-4.4 27231.22-0.2Q27229.52 0.75 27227.42 0.75L27227.42 0.75ZM28220.54-26.45L28226.69-26.45 28226.69 0 28220.54 0 28220.54-26.45ZM28223.59-39.65Q28225.24-39.65 28226.27-38.6 28227.29-37.55 28227.29-35.9L28227.29-35.9Q28227.29-34.3 28226.27-33.25 28225.24-32.2 28223.59-32.2L28223.59-32.2Q28221.94-32.2 28220.92-33.25 28219.89-34.3 28219.89-35.9L28219.89-35.9Q28219.89-37.55 28220.92-38.6 28221.94-39.65 28223.59-39.65L28223.59-39.65ZM29228.17-27.15Q29230.32-27.15 29232.07-26.43 29233.82-25.7 29235.42-24.15L29235.42-24.15 29232.77-20.65Q29231.67-21.55 29230.69-21.98 29229.72-22.4 29228.57-22.4L29228.57-22.4Q29226.32-22.4 29225.17-20.28 29224.02-18.15 29224.02-13.1L29224.02-13.1Q29224.02-8.2 29225.19-6.2 29226.37-4.2 29228.57-4.2L29228.57-4.2Q29229.67-4.2 29230.57-4.6 29231.47-5 29232.67-5.85L29232.67-5.85 29235.42-2.3Q29232.22 0.75 29228.27 0.75L29228.27 0.75Q29223.17 0.75 29220.34-2.73 29217.52-6.2 29217.52-13L29217.52-13Q29217.52-17.4 29218.82-20.6 29220.12-23.8 29222.54-25.48 29224.97-27.15 29228.17-27.15L29228.17-27.15ZM30241.64-6.4Q30241.64-5.1 30241.99-4.48 30242.34-3.85 30243.14-3.45L30243.14-3.45 30241.89 0.65Q30239.84 0.4 30238.61-0.45 30237.39-1.3 30236.79-3.05L30236.79-3.05Q30234.49 0.75 30230.34 0.75L30230.34 0.75Q30227.04 0.75 30225.09-1.48 30223.14-3.7 30223.14-7.4L30223.14-7.4Q30223.14-11.7 30225.81-13.95 30228.49-16.2 30233.59-16.2L30233.59-16.2 30235.64-16.2 30235.64-18.05Q30235.64-20.55 30234.76-21.58 30233.89-22.6 30231.94-22.6L30231.94-22.6Q30229.59-22.6 30226.09-21.3L30226.09-21.3 30224.69-25.3Q30226.69-26.2 30228.84-26.68 30230.99-27.15 30232.94-27.15L30232.94-27.15Q30241.64-27.15 30241.64-18.35L30241.64-18.35 30241.64-6.4ZM30231.99-3.7Q30234.39-3.7 30235.64-7L30235.64-7 30235.64-12.55 30234.19-12.55Q30231.64-12.55 30230.46-11.4 30229.29-10.25 30229.29-7.85L30229.29-7.85Q30229.29-5.8 30229.99-4.75 30230.69-3.7 30231.99-3.7L30231.99-3.7ZM31244.86-5L31247.01-1.2Q31244.56 0.75 31241.26 0.75L31241.26 0.75Q31237.81 0.75 31236.01-1.23 31234.21-3.2 31234.21-6.6L31234.21-6.6 31234.21-22 31231.11-22 31231.11-26.45 31234.21-26.45 31234.21-32.3 31240.36-33.05 31240.36-26.45 31245.36-26.45 31244.76-22 31240.36-22 31240.36-6.6Q31240.36-4.2 31242.41-4.2L31242.41-4.2Q31243.06-4.2 31243.56-4.38 31244.06-4.55 31244.86-5L31244.86-5ZM32235.83-26.45L32241.98-26.45 32241.98 0 32235.83 0 32235.83-26.45ZM32238.88-39.65Q32240.53-39.65 32241.55-38.6 32242.58-37.55 32242.58-35.9L32242.58-35.9Q32242.58-34.3 32241.55-33.25 32240.53-32.2 32238.88-32.2L32238.88-32.2Q32237.23-32.2 32236.2-33.25 32235.18-34.3 32235.18-35.9L32235.18-35.9Q32235.18-37.55 32236.2-38.6 32237.23-39.65 32238.88-39.65L32238.88-39.65ZM33243.35-27.15Q33248.35-27.15 33251.13-23.65 33253.9-20.15 33253.9-13.25L33253.9-13.25Q33253.9-6.65 33251.1-2.95 33248.3 0.75 33243.35 0.75L33243.35 0.75Q33238.4 0.75 33235.6-2.88 33232.8-6.5 33232.8-13.25L33232.8-13.25Q33232.8-19.95 33235.6-23.55 33238.4-27.15 33243.35-27.15L33243.35-27.15ZM33243.35-22.5Q33241.2-22.5 33240.2-20.38 33239.2-18.25 33239.2-13.25L33239.2-13.25Q33239.2-8.2 33240.2-6.08 33241.2-3.95 33243.35-3.95L33243.35-3.95Q33245.5-3.95 33246.5-6.08 33247.5-8.2 33247.5-13.25L33247.5-13.25Q33247.5-18.3 33246.5-20.4 33245.5-22.5 33243.35-22.5L33243.35-22.5ZM34257.07-27.15Q34259.92-27.15 34261.57-25.1 34263.22-23.05 34263.22-19.6L34263.22-19.6 34263.22 0 34257.07 0 34257.07-18.9Q34257.07-20.8 34256.55-21.63 34256.02-22.45 34255.02-22.45L34255.02-22.45Q34252.92-22.45 34250.87-18.5L34250.87-18.5 34250.87 0 34244.72 0 34244.72-26.45 34250.07-26.45 34250.52-23Q34251.87-25.1 34253.4-26.13 34254.92-27.15 34257.07-27.15L34257.07-27.15ZM36256.76 0.75Q36254.06 0.75 36252.49-0.93 36250.91-2.6 36250.91-5.4L36250.91-5.4 36250.91-37.05 36257.06-37.7 36257.06-5.65Q36257.06-5 36257.36-4.6 36257.66-4.2 36258.26-4.2L36258.26-4.2Q36258.61-4.2 36258.94-4.3 36259.26-4.4 36259.36-4.4L36259.36-4.4 36260.56-0.2Q36258.86 0.75 36256.76 0.75L36256.76 0.75ZM37266.79-6.4Q37266.79-5.1 37267.14-4.48 37267.49-3.85 37268.29-3.45L37268.29-3.45 37267.04 0.65Q37264.99 0.4 37263.76-0.45 37262.54-1.3 37261.94-3.05L37261.94-3.05Q37259.64 0.75 37255.49 0.75L37255.49 0.75Q37252.19 0.75 37250.24-1.48 37248.29-3.7 37248.29-7.4L37248.29-7.4Q37248.29-11.7 37250.96-13.95 37253.64-16.2 37258.74-16.2L37258.74-16.2 37260.79-16.2 37260.79-18.05Q37260.79-20.55 37259.91-21.58 37259.04-22.6 37257.09-22.6L37257.09-22.6Q37254.74-22.6 37251.24-21.3L37251.24-21.3 37249.84-25.3Q37251.84-26.2 37253.99-26.68 37256.14-27.15 37258.09-27.15L37258.09-27.15Q37266.79-27.15 37266.79-18.35L37266.79-18.35 37266.79-6.4ZM37257.14-3.7Q37259.54-3.7 37260.79-7L37260.79-7 37260.79-12.55 37259.34-12.55Q37256.79-12.55 37255.61-11.4 37254.44-10.25 37254.44-7.85L37254.44-7.85Q37254.44-5.8 37255.14-4.75 37255.84-3.7 37257.14-3.7L37257.14-3.7ZM38271.01-27.15Q38274.86-27.15 38276.91-23.65 38278.96-20.15 38278.96-13.25L38278.96-13.25Q38278.96-6.75 38276.66-3 38274.36 0.75 38270.36 0.75L38270.36 0.75Q38268.61 0.75 38267.16-0.13 38265.71-1 38264.66-2.55L38264.66-2.55 38264.31 0 38258.86 0 38258.86-37 38265.01-37.65 38265.01-23.6Q38266.06-25.3 38267.58-26.23 38269.11-27.15 38271.01-27.15L38271.01-27.15ZM38268.71-3.9Q38270.56-3.9 38271.58-6 38272.61-8.1 38272.61-13.25L38272.61-13.25Q38272.61-18.6 38271.68-20.58 38270.76-22.55 38269.06-22.55L38269.06-22.55Q38267.91-22.55 38266.86-21.6 38265.81-20.65 38265.01-19.1L38265.01-19.1 38265.01-6.7Q38265.66-5.45 38266.63-4.67 38267.61-3.9 38268.71-3.9L38268.71-3.9Z" opacity="1" transform="matrix(1,0,0,1,0,0)" fill="#ffffff" class="slogan-text-1" data-fill-palette-color="secondary" id="text-1"></path></svg></g></svg></g></svg></g></svg></g><g transform="matrix(1,0,0,1,150.40212177098184,0)"><svg viewBox="0 0 94.71575645803632 97.95151153599234" height="97.95151153599234" width="94.71575645803632"><g><svg xmlns="http://www.w3.org/2000/svg" xmlns:xlink="http://www.w3.org/1999/xlink" xmlns:xodm="http://www.corel.com/coreldraw/odm/2003" xml:space="preserve" version="1.1" style="shape-rendering:geometricPrecision;text-rendering:geometricPrecision;image-rendering:optimizeQuality;" viewBox="711.75 62.999844203542395 37946.59 39242.95161791111" x="0" y="0" fill-rule="evenodd" clip-rule="evenodd" height="97.95151153599234" width="94.71575645803632" class="icon-icon-0" data-fill-palette-color="accent" id="icon-0"><g fill="#fdfdfd" data-fill-palette-color="accent"><path class="" d="M10374.7 4592.69C10031.48 4403.72 9751.57 4921.28 10088.4 5109.2 10424.69 5297.62 10745.39 5499.47 11057.49 5723.53 11377.34 5949.69 11713.3 5466.7 11399.62 5242.18 11067.4 5003.68 10731.41 4792.54 10374.7 4592.68zM32731.31 7052.98C32731.31 6794.05 33125.01 6794.05 33125.01 7052.98V8263.59C33125.01 8522.52 32731.31 8522.52 32731.31 8263.59zM32731.31 9617.74C32731.31 9358.81 33125.01 9358.81 33125.01 9617.74V14797.31C33125.01 15056.24 32731.31 15056.24 32731.31 14797.31zM8569.16 27687.4H1003.05C614.65 27687.4 614.65 27096.85 1003.05 27096.85H8560.48C11382.49 27096.85 11306.79 30812.46 8602.87 30812.46H4374.07L4779.59 31181.78C5065.98 31442.41 4669.19 31878.4 4382.81 31617.77L3424.06 30744.6C3254.7 30590.36 3270.63 30411.38 3435.66 30261.1L4382.81 29398.49C4669.19 29137.86 5065.98 29573.85 4779.59 29834.48L4354.2 30221.89H8583.03C10550.2 30221.89 10584.14 27687.39 8569.14 27687.39zM4804.97 25164.88C5056.51 25458.84 4608.98 25841.78 4357.44 25547.82L3380.51 24406.82C3285.66 24298.69 3281.84 24131.51 3380.51 24018.97L4357.44 22877.97C4608.98 22584.01 5056.5 22966.95 4804.97 23260.91L4246.36 23913.34H12203.48V17879.56C12030.69 18024.18 11843.65 18164.75 11658.12 18292.62 11338.22 18505.89 11010.29 18026.19 11324.86 17805.12 11638.19 17588.85 11927.6 17350.99 12203.47 17088.83V1100.31C12203.47 791.66 12618.81 693.24 12760.43 963.44 13835.87 2829.1 15617.64 3690.05 17254.17 4480.74 18746.48 5201.75 20380.61 5965.28 20997.61 7634.24 21148 8041.04 21213.25 8454.57 21203.19 8863.01L21202.92 23913.34H24517.03C24905.43 23913.34 24905.43 24503.89 24517.03 24503.89H21202.9L21202.77 31906.17C23014.97 32500.12 25042.51 33815.1 26315.15 35249.44L26262.52 8967.48C26259.69 7567.79 21855.85 5799.18 20687.06 5314.71 18382.12 4359.3 15208.58 3020.69 13808.65 871.75 13598.02 547.48 14091.69 226.83 14302.31 551.1 15613.84 2564.35 18750.08 3873.7 20913.13 4770.3 22372.39 5375.17 26847.01 7117.8 26850.75 8960.55L26894.31 30709.25C29088.74 30969.78 31307.09 31075.24 33516.27 31075.24 34655.62 31075.24 34658.83 30968.87 34658.83 29866.81V6033.45C34658.83 5562.01 34612.63 5452.02 34115.72 5457.67 28780.05 5518.36 19000.44 5011.12 15333.51 546.36 15088.03 247.84 15542.49-125.86 15787.96 172.65 19300.9 4449.92 29003.15 4927.53 34111.11 4869.43 34948.29 4859.91 35249.39 5231.06 35249.39 6033.45V23913.36H38367.04C38755.44 23913.36 38755.44 24503.91 38367.04 24503.91H35249.39V29866.81C35249.39 31301.02 35014.13 31665.79 33516.28 31665.79 31310.81 31665.79 29086.7 31560.03 26895.51 31303.73L26905.07 36074.04C26924.73 36368 26541.71 36507.78 26369.92 36263.53 25235.1 34651.18 23046.02 33184.22 21196.22 32528.45L21196.18 34857.19C21196.18 37505.29 18799.39 39176.49 16343.48 39303.49 16167.22 39326.16 16010.15 39189.39 16010.15 39010.65V30730.43C14533.46 29971.51 13261.59 29158.52 12370.48 27719.7 12197.94 27441.12 12203.49 27323.69 12203.49 27031.7V24503.9H4239.03L4804.98 25164.9zM20614.92 10736.68C20396.97 11083.81 20123.81 11407.74 19804.3 11697.62 18990.54 12435.92 17872.6 12956.75 16600.69 13077.9V38692.86C18652.25 38477.25 20614.48 37064.55 20614.48 34857.17 20614.62 26817.02 20614.77 18776.85 20614.91 10736.69zM14600.36 23913.32C14988.76 23913.32 14988.76 24503.87 14600.36 24503.87H12794.03V26976.12C12797.62 27185.94 12788.82 27278.86 12911.22 27471.53 13684.42 28688.56 14758.83 29398.35 16010.14 30065.62V12872.77C16010.14 12624.18 16091.79 12521.99 16355 12506.35 17573.01 12433.89 18642.77 11955.46 19407.52 11261.63 20366.21 10391.85 20912.74 9105.19 20443.97 7837.23 19895.63 6354 18326.6 5653.16 16998.11 5011.3 15529.7 4301.84 13949.81 3538.32 12794.02 2064.92V6476.98C13062.71 6768.56 13308.91 7078.71 13534.69 7404.55 13754.91 7720.98 13276.73 8063.75 13050.97 7743.31 12967.95 7623.5 12882.9 7507.22 12794.03 7391.68V23913.32zM7803.85 7979.06C9192.03 8297.02 10627.55 8945.28 10658.4 10575.8 10682.51 11850.01 9669.98 12898.4 8397.01 12922.5 7730.87 12935.11 7060.27 12649.91 6627.96 12142.03 6236.36 11682.03 5888.68 10893.59 5689.8 10144.8 5147.72 8103.89 5754.99 7509.77 7803.85 7979.06M7672.36 8553.46C6054.69 8182.94 5832.72 8387.73 6259.58 9994.85 6437.22 10663.66 6734.85 11355.42 7059.33 11741.46 7383.04 12126.54 7884.36 12343.78 8387.78 12334.26 9334.92 12316.34 10088.06 11531 10070.15 10585.03 10045.43 9278.12 8751.65 8800.67 7672.36 8553.46M2645.3 8939.87C3221.21 9163.6 3816.44 9521.54 4090.8 9875.81 5015.49 11069.9 4044.84 12830.6 2513.27 12635.91 1321.16 12484.38 948.02 11393.6 824.67 10349.86 640.92 8795.11 1154.82 8360.83 2645.3 8939.86zM2433.07 9488.9C1386.17 9082.2 1279 9167.12 1410.6 10280.66 1497.77 11018.24 1710.94 11940.92 2587.08 12052.28 3594.53 12180.35 4234.37 11022.82 3624.81 10235.68 3416.83 9967.12 2923.26 9679.33 2433.07 9488.9M4357.43 18266.13C4608.97 17972.17 5056.49 18355.11 4804.96 18649.07L4010.61 19576.83 4861.75 20361.62C5146.98 20624.1 4747.88 21057.78 4462.66 20795.31L3193.72 19625.29zM5907.79 19238.8C5516.24 19244.45 5528.49 19832.5 5914.39 19829.31 6300.81 19825.14 6689.06 19815.57 7075.1 19798.78 7471.06 19775.49 7430.68 19193.07 7048.91 19208.81 6672.68 19233.85 6285.86 19234.56 5907.79 19238.8M8737.55 18956.82C8358.61 19056.2 8511.58 19624 8885.41 19528.56 9283.61 19427.65 9663.29 19306.41 10045.17 19154.89 10383.6 19016.96 10214.26 18499.41 9856.76 18596.2 9562.72 18719.13 9136.85 18855.63 8737.56 18956.82zM13276.72 15776.69C13070.62 16108.38 13568.84 16415.9 13776.13 16091.86 13996.24 15744.4 14185.26 15381.58 14347.08 15003.53 14498.02 14642.72 13954.46 14418.36 13803.01 14773.88 13655.11 15119.41 13477.92 15459.15 13276.71 15776.7zM14277.64 13143.49C14215.77 13523.43 14788.4 13623.77 14859.29 13245.45 14929.06 12847.66 14964 12419.65 14965.61 12015.76 14963.99 11623.98 14375.85 11630.72 14375.06 12016.47 14370.1 12395.43 14337.78 12769.66 14277.64 13143.49M14190.67 10324.86C14279.59 10706.41 14851.41 10569.21 14766.3 10192.95 14672.1 9790.32 14554.08 9406.56 14401.49 9022.08 14254.29 8660.91 13711.36 8886.01 13853.66 9242.62 13996.07 9601.36 14103.43 9951.98 14190.67 10324.85zM3409.95 5130.97C4151.94 5382.31 4877.49 5837.39 4804.13 6724.32 4744.81 7441.65 4113.61 7976.65 3396.24 7917.32 2511.96 7844.19 2179.4 7052.16 2053.58 6280.16 1864.38 5119.42 2296.08 4753.64 3409.95 5130.96zM3220.79 5689.22C2531.48 5455.72 2517.84 5467.42 2634.9 6185.59 2711.95 6658.31 2873.99 7281.89 3444.68 7329.09 3838.88 7361.69 4183.29 7070.15 4215.89 6675.89 4263.36 6101.95 3674 5842.74 3220.8 5689.23z" fill="#fdfdfd" fill-rule="nonzero" data-fill-palette-color="accent"></path></g></svg></g></svg></g><g></g></svg></g><defs></defs></svg><rect width="395.52" height="175.2951883857982" fill="none" stroke="none" visibility="hidden"></rect></g></svg></g></svg>